<svg version="1.1" id="Layer_1" xmlns="http://www.w3.org/2000/svg" xmlns:xlink="http://www.w3.org/1999/xlink" x="0px" y="0px"
	 width="100%" viewBox="0 0 208 336" enable-background="new 0 0 208 336" xml:space="preserve">
<path fill="#000000" opacity="1.000000" stroke="none" 
	d="
M209.000000,177.531342 
	C208.307785,180.733002 207.598495,183.461823 206.926392,186.199768 
	C204.425812,196.386490 198.392944,204.117752 190.060715,210.162964 
	C181.446732,216.412613 172.769547,222.532883 164.846024,229.713470 
	C158.491653,235.472015 150.664459,238.168701 142.005356,238.350189 
	C128.681091,238.629425 115.414368,238.268265 102.301643,235.542450 
	C101.050537,235.282394 99.698524,235.507751 98.188324,235.507751 
	C97.150513,238.815002 97.910164,242.107742 97.964523,245.359787 
	C98.409264,271.970154 98.863052,298.580475 99.364777,325.189819 
	C99.433647,328.842560 99.781281,332.489990 99.999924,336.569946 
	C97.958336,337.000000 95.916664,337.000000 93.437500,337.000000 
	C92.205498,308.040527 91.432396,279.080414 90.595398,250.122162 
	C90.456032,245.300323 89.860435,240.488403 89.810555,235.668427 
	C89.775970,232.326019 87.566566,231.612869 85.143402,230.761765 
	C72.691650,226.388306 60.817436,220.879089 49.698380,213.664841 
	C38.203716,206.206909 30.307665,196.191345 25.729162,183.295609 
	C22.612656,174.517731 18.991137,165.917358 15.524472,157.266052 
	C11.128895,146.296570 10.835381,135.014343 12.359824,123.457474 
	C12.965333,118.867065 12.516341,114.144608 12.671267,109.486389 
	C13.141152,95.358147 11.659410,81.192825 13.602141,67.089188 
	C14.741058,58.820995 17.771141,51.341534 22.648689,44.638351 
	C25.682051,40.469627 29.034048,36.534004 32.198277,32.459000 
	C39.945477,22.481899 49.958313,16.672369 62.637424,15.426834 
	C70.487442,14.655686 77.589478,10.853330 85.245209,9.321872 
	C102.620750,5.846059 120.145866,4.457556 137.825790,6.597807 
	C144.557617,7.412731 150.049530,10.805469 154.879562,15.326073 
	C158.544357,18.756107 162.344070,22.039255 166.693039,24.504440 
	C177.144943,30.429052 183.890839,39.485542 189.105576,49.984261 
	C197.729797,67.347221 204.035141,85.538948 208.876984,104.654678 
	C209.000000,129.020889 209.000000,153.041794 209.000000,177.531342 
M81.036285,222.423248 
	C100.313637,230.591736 120.552597,232.471008 141.235687,231.973282 
	C149.158722,231.782608 156.071091,229.358719 161.721664,224.074997 
	C169.678482,216.634750 178.662567,210.604004 187.407364,204.228607 
	C193.979752,199.436981 198.408432,193.166153 200.474152,185.280167 
	C205.633881,165.582748 207.068665,145.440979 205.332977,125.321198 
	C202.940063,97.582848 193.437347,71.829834 180.388870,47.360676 
	C176.953644,40.918793 172.142578,35.655197 165.947632,31.750624 
	C160.292709,28.186432 154.929413,24.264574 150.072098,19.656176 
	C145.962433,15.757085 141.068527,12.934412 135.464401,12.633910 
	C117.975601,11.696131 100.467392,11.670376 83.415688,16.473974 
	C75.729446,18.639248 68.167686,21.127312 60.214134,22.290470 
	C55.278263,23.012314 50.201588,24.245617 46.365963,27.582747 
	C29.831295,41.968487 18.031569,58.798065 18.297169,82.017273 
	C18.491571,99.012283 18.110910,116.014755 17.912424,133.013031 
	C17.803995,142.299011 19.180878,151.192856 23.340239,159.653458 
	C25.682577,164.418030 27.733988,169.416565 29.168701,174.519928 
	C34.158253,192.268082 44.849758,205.027618 61.315590,213.263077 
	C67.578606,216.395538 73.816437,219.532562 81.036285,222.423248 
z"/>
<path fill="#000000" opacity="1.000000" stroke="none" 
	d="
M170.577118,114.392403 
	C177.559372,112.334328 184.350159,111.635925 191.144485,111.057899 
	C193.099869,110.891548 195.120468,111.227303 197.084274,111.515923 
	C198.431152,111.713875 199.753342,112.342339 199.915375,113.907593 
	C200.097916,115.671181 198.856293,116.576561 197.412048,117.228378 
	C194.270309,118.646301 190.857346,118.393875 187.569870,118.619339 
	C176.994064,119.344688 167.409271,124.192619 156.961914,125.563843 
	C125.466408,129.697662 94.299591,135.862289 63.013493,141.283951 
	C57.949249,142.161560 53.003757,143.708496 47.980034,144.842651 
	C45.563057,145.388306 42.712654,146.250229 41.715916,142.867661 
	C40.766685,139.646271 43.273247,138.481262 45.732296,137.603226 
	C54.736401,134.388153 64.250313,133.670395 73.564911,131.980438 
	C88.127243,129.338425 102.668655,126.565201 117.271423,124.167252 
	C128.091858,122.390404 139.165131,122.355148 149.871124,119.698769 
	C156.651855,118.016335 163.410690,116.245529 170.577118,114.392403 
z"/>
<path fill="#000000" opacity="1.000000" stroke="none" 
	d="
M67.100403,101.647263 
	C66.628067,103.991791 66.204727,105.902229 65.834160,107.574501 
	C64.996552,107.760048 64.445732,107.963387 64.398872,107.880791 
	C61.930687,103.530556 57.697079,104.439247 53.760311,104.061836 
	C48.592129,103.566368 46.487278,101.115829 46.834782,96.813622 
	C47.261520,91.530388 49.973087,88.790756 54.933228,88.631371 
	C65.193848,88.301659 67.460785,90.636459 67.100403,101.647263 
z"/>
<path fill="#000000" opacity="1.000000" stroke="none" 
	d="
M126.579895,137.616394 
	C131.231705,136.630112 135.445221,135.666489 139.667374,134.742432 
	C142.116516,134.206421 144.016434,134.606461 144.245529,137.638199 
	C144.450729,140.353912 144.053421,143.362473 140.773727,143.061981 
	C131.292328,142.193283 122.285156,144.520447 113.147827,146.191956 
	C111.370132,146.517136 109.233528,146.420593 108.920776,143.895325 
	C108.658295,141.775986 109.957169,140.389725 111.876663,139.824493 
	C116.525093,138.455673 121.342323,138.075974 126.579895,137.616394 
z"/>
<path fill="#000000" opacity="1.000000" stroke="none" 
	d="
M164.617676,84.746620 
	C161.777893,83.493286 160.665085,81.725426 161.433823,78.993675 
	C162.134033,76.505524 163.984543,75.680923 166.334946,75.528519 
	C169.862839,75.299744 173.932068,73.859474 174.633591,79.580696 
	C174.706940,80.178818 175.737381,80.754982 176.429062,81.162674 
	C178.035538,82.109573 180.035767,83.040199 179.249268,85.235725 
	C178.542191,87.209465 176.408859,86.391304 174.818848,86.427193 
	C171.453659,86.503151 168.215790,85.720985 164.617676,84.746620 
z"/>
</svg>